<?xml version="1.0" standalone="no"?>
<!DOCTYPE svg PUBLIC "-//W3C//DTD SVG 20010904//EN"
 "http://www.w3.org/TR/2001/REC-SVG-20010904/DTD/svg10.dtd">
<svg version="1.0" xmlns="http://www.w3.org/2000/svg"
 width="194.000000pt" height="194.000000pt" viewBox="0 0 194.000000 194.000000"
 preserveAspectRatio="xMidYMid meet">
<metadata>
Created by potrace 1.11, written by Peter Selinger 2001-2013
</metadata>
<g transform="translate(0.000000,194.000000) scale(0.100000,-0.100000)"
fill="#000000" stroke="none">
<path d="M1870 1555 c-19 -55 -34 -103 -35 -107 0 -3 -3 -10 -7 -14 -5 -4 -8
-15 -8 -25 0 -10 -6 -24 -12 -31 -7 -7 -30 -36 -50 -63 -56 -74 -56 -75 -88
-75 -35 0 -36 -2 -44 -65 -4 -27 -10 -51 -14 -53 -48 -18 -58 -31 -82 -104
-14 -42 -28 -79 -31 -83 -4 -3 -30 3 -58 15 -28 11 -54 20 -57 20 -2 0 -13
-19 -23 -42 -10 -24 -28 -64 -40 -90 l-23 -47 -40 15 c-41 14 -78 11 -78 -7 0
-21 -35 -6 -79 33 -26 24 -66 56 -89 71 l-41 29 -58 -45 c-32 -25 -67 -53 -78
-64 -50 -46 -53 -46 -80 -25 -24 19 -29 19 -60 6 -19 -8 -39 -14 -45 -14 -6 0
-29 40 -52 89 l-40 89 -61 -24 c-33 -13 -61 -23 -62 -21 0 1 -12 38 -26 82
-23 70 -30 82 -60 97 -19 10 -35 24 -35 30 -1 7 -2 32 -3 54 -1 41 -2 41 -43
47 -23 3 -45 12 -50 20 -4 8 -26 38 -48 66 -46 57 -63 95 -104 224 -16 48 -33
87 -38 87 -5 0 -6 -51 -3 -127 4 -71 8 -159 9 -198 4 -87 13 -128 36 -169 15
-25 30 -74 54 -181 9 -42 44 -104 76 -135 16 -15 28 -53 40 -121 12 -69 18
-82 62 -130 41 -45 127 -197 128 -226 1 -17 134 -103 169 -108 20 -3 67 -13
105 -21 80 -16 128 -18 174 -4 25 7 41 5 66 -7 29 -13 36 -13 62 -1 16 8 34
14 39 13 6 0 30 -4 55 -8 34 -5 77 0 172 21 106 24 134 35 165 61 68 58 83 73
83 85 0 28 62 137 114 199 31 38 56 74 56 80 1 73 21 139 55 183 46 60 59 89
79 180 9 39 28 98 43 130 20 46 27 76 28 139 1 44 5 114 10 155 10 101 12 161
5 190 -5 20 -13 5 -40 -75z"/>
<path d="M807 1484 c-141 -27 -253 -108 -313 -228 -33 -69 -36 -78 -34 -162 1
-49 2 -97 2 -106 -1 -24 15 -23 55 5 37 24 40 32 48 97 8 70 85 128 154 115
95 -18 217 -21 237 -4 13 10 20 9 45 -5 22 -13 43 -16 77 -12 167 20 196 19
239 -3 48 -24 61 -44 69 -103 7 -54 26 -83 64 -103 17 -9 31 -14 31 -13 3 7 8
79 9 138 3 100 -42 201 -115 261 -11 9 -31 26 -44 38 -53 47 -177 90 -248 87
-22 -1 -53 -12 -69 -23 l-29 -21 -55 27 c-54 27 -57 27 -123 15z"/>
</g>
</svg>
