<svg version="1.1" xmlns="http://www.w3.org/2000/svg" xmlns:xlink="http://www.w3.org/1999/xlink" x="0px" y="0px" viewBox="0 0 343.3 262.4" style="enable-background:new 0 0 343.3 262.4;" xml:space="preserve">
<g>
	<path fill="#FFFFFF" d="M343.3,0.3c-0.4-0.1-0.9-0.1-1.4-0.2c-0.9-0.3-1.3,0-1.6,0.9c-0.9,2.6-1.9,5.1-2.7,7.7
		c-2.2,6.9-4.2,13.8-6.5,20.7c-4.5,13.1-10.7,25.2-20.1,35.5c-3.8,4.2-8.3,7.4-13.9,8.6c-1,0.2-2,0.6-2.9,1c-1.8,0.9-3,2.3-3.1,4.4
		c-0.1,1.5,0,3,0.1,4.5c0.3,7.6-2.8,12.5-9.6,14.8c-1.7,0.6-2.8,1.6-3.6,3.1c-0.5,0.9-1,1.9-1.3,2.8c-2.9,8.2-5.7,16.4-8.6,24.6
		c-0.2,0.4-0.3,0.9-0.5,1.4c-7.2-2.7-14.2-5.4-21.4-8.1c-0.7,1.6-1.4,3.1-2.1,4.6c-3.4,7.3-6.8,14.5-10.2,21.8
		c-1,2.2-3.1,3.2-5.2,4.2c-1.6,0.8-3.1,0.2-4.6-0.4c-4.2-1.7-8.6-2.4-12.9-0.3c-2.1,1-3.9,2.5-5.9,3.8c-0.4-0.3-1-0.7-1.6-1.2
		c-8.2-6.5-16.4-13.1-24.7-19.6c-1-0.8-1.9-1.6-3-2.2c-2.9-1.8-5.8-1.9-8.7-0.1c-0.8,0.5-1.6,1-2.4,1.6c-5.1,4.2-10.2,8.4-15.3,12.5
		c-4.6,3.7-9.3,7.3-14,11.1c-0.5-0.7-0.9-1.3-1.3-1.9c-2.7-3.7-6.2-5.1-10.7-3.9c-2,0.5-3.9,1.3-5.8,1.8c-2.1,0.6-4.2,1.1-6.3,1.6
		c-0.9,0.2-1.4-0.1-1.8-1c-3-6.6-6.1-13.2-9.2-19.8c-1.8-3.8-3.6-7.6-5.4-11.4c-7.3,2.7-14.5,5.3-21.8,8c-0.2-0.4-0.3-0.8-0.4-1.2
		c-1.1-3.4-2.2-6.8-3.3-10.2c-1.7-5-3.2-10-5.1-14.8c-1.6-4.2-4.7-7.3-9.2-8.4c-2-0.5-3-1.6-3.6-3.4c-0.3-0.9-0.7-1.8-0.8-2.8
		c-0.4-3.8-0.8-7.6-1.1-11.4c-0.1-0.9-0.4-1.3-1.2-1.6c-9.8-3.8-18.1-9.7-24.5-18c-4.8-6.2-8.4-13-11.1-20.3
		c-3.2-8.7-6.1-17.5-9.2-26.2c-1.1-3-2.2-6-3.3-9.1c-0.1,0-0.2,0-0.3,0.1c0,0.3,0,0.5,0,0.8C0.1,10.2,0,15.9,0,21.6
		c0,15-0.2,30.1,0.8,45.1C1.5,77.1,3.2,87.2,6.9,97c2.4,6.4,4.8,12.9,6.6,19.5c3.1,12,8.1,23.1,15.6,33c2.9,3.8,5,8,6,12.7
		c0.8,3.6,1.2,7.2,2,10.8c2,9.5,5.9,18.1,12.8,25.1c3,3.1,6.1,6.1,8.1,9.9c3.7,7,7.3,14.1,10.8,21.2c1.9,3.8,3.5,7.7,6.6,10.6
		c9.4,9.1,20.5,15.4,33.1,18.8c12,3.3,24.3,4,36.7,3.6c7-0.2,14.1-0.7,21.1-0.8c7.7-0.2,15.4-0.4,23,0c4.7,0.3,9.3,0.5,14,0.5
		c2.3,0,4.7-0.1,7-0.6c9.1-1.8,18.1-3.8,27.2-5.8c15.1-3.2,26.1-11.9,33.8-25c4.6-7.7,9.3-15.3,13.9-22.9c4.5-7.3,9-14.6,13.5-22
		c2.4-3.9,4.1-8,4.2-12.7c0.1-2.2,0.5-4.4,1-6.6c1.8-8.9,6-16.7,11.6-23.7c3.2-4,5.7-8.4,7.3-13.3c4.4-14,8.8-27.9,13.2-41.9
		c2.1-6.7,3.8-13.5,4.2-20.5c0.7-10.6,1.2-21.2,1.7-31.8c0.5-9.6,1-19.2,1.4-28.7C343.4,4.4,343.3,2.4,343.3,0.3z"/>
	<path fill="#FFFFFF" d="M79.9,122.6c2.5-1.2,4.7-2.2,6.9-3.5c5.6-3.2,8.7-8,9.4-14.4c0.5-4.7,1.6-9.4,3.8-13.7
		c3-5.8,7.5-9.7,14-11.1c4.4-1,8.9-0.8,13.3,0.1c6.1,1.3,12.2,1.9,18.3,1.8c6.6-0.2,13.2-0.5,19.8-0.7c7.1-0.2,14.2,0.3,21.1,2.4
		c1.6,0.5,3.1,0.4,4.7,0.1c0.8-0.1,1.6-0.3,2.4-0.4c6.3-0.8,12.7-1.6,19-2.3c5.1-0.6,10.3-0.9,15.4-0.1c7.3,1.1,12.6,4.8,15.6,11.6
		c1.8,4.1,2.8,8.3,3.5,12.7c0.5,3.1,1.2,6.1,2.8,8.9c3.2,5.5,8.5,7.6,14.8,8.9c0-3.1,0-6,0-8.9c0.1-7.1,0.5-14.2,0.4-21.3
		c-0.2-12.4-4.2-23.7-11.9-33.4c-14.9-18.8-34.5-29.2-58.4-31.3c-4.7-0.4-9.3,0.6-13.3,3.3c-4.9,3.3-10.1,3.8-15.5,1.6
		c-2.7-1.1-5.4-2.2-8.1-3.2c-4.8-1.6-9.8-2.4-14.9-1.3c-8,1.8-15.8,4.2-23.3,7.5c-8.5,3.7-16.4,8.2-22.8,15
		c-17,18.1-23.4,39.5-18.9,64C78.4,117.3,79.2,119.8,79.9,122.6z"/>
</g>
</svg>
