<svg version="1.1" xmlns="http://www.w3.org/2000/svg" xmlns:xlink="http://www.w3.org/1999/xlink" x="0px" y="0px"
	 viewBox="0 0 222.6 529.4" style="enable-background:new 0 0 222.6 529.4;" xml:space="preserve">
<ellipse style="opacity:0.21;" cx="106.5" cy="510.4" rx="106.5" ry="19"/>
<path style="fill:#333333;" d="M122.4,496.7c0,0,10.3,9,24.3,11.5c0,0-11.7,8.5-25.8,0l-4.2,1l-5-0.5v-13L122.4,496.7z"/>
<path style="fill:#333333;" d="M85.9,498.4c0,0-10.3,9-24.3,11.5c0,0,11.7,8.5,25.8,0l4.2,1l5-0.5v-13L85.9,498.4z"/>
<path style="fill:#0071BC;" d="M139.1,321.7c0,0-13.8,24.5-12.3,176.3c-6.3,6.2-16.5,1-16.5,1s5.6-148.3-5.6-148
	c-3.8,0.1-8.1,49.7-6.9,148c-8.5,4-13.5,0-13.5,0s0.2-135.5-17.9-175.8C66.4,323.2,104.5,292.3,139.1,321.7z"/>
<path style="fill:#D4145A;" d="M83,180.9c0,0-52.9,1.8-45.9,143.4h13.5c0,0-0.2-93.7,19.3-110.7l-3.5,109.5c0,0,19.7,18.5,72.7-1.5
	c-3-70.7-9.9-111-9.9-111s56.8,64.3,81.8-55.3h-11.3c0,0-11.5,58.4-31.2,59.6c-33.8,1.9-25.8-34.2-45.3-34S83,180.9,83,180.9z"/>
<path style="fill:#FCF0BE;" d="M99.1,194.8L99.1,194.8c8,0,14.5-6.5,14.5-14.5V169c0-8-6.5-14.5-14.5-14.5h0
	c-8,0-14.5,6.5-14.5,14.5v11.3C84.6,188.3,91.1,194.8,99.1,194.8z"/>
<path style="fill:#FCF0BE;" d="M40.7,85.7c0.9,0,1.8,0.2,2.6,0.5l-0.2-15.8c0-36.5,25.8-66,57.7-66h0c31.8,0,57.7,29.5,57.7,66
	l0.2,15.4c0.3,0,0.7-0.1,1-0.1c4.9,0,8.9,4.6,8.9,10.2c0,5.6-4,10.2-8.9,10.2c-0.5,0-0.9-0.1-1.3-0.1c-3,33.2-27.5,59.1-57.3,59.1h0
	c-29.9,0-54.6-26.1-57.4-59.6c-0.9,0.4-1.9,0.6-2.9,0.6c-4.9,0-8.9-4.6-8.9-10.2C31.8,90.2,35.8,85.7,40.7,85.7z"/>
<g style="opacity:0.25;">
	<path d="M65.8,19l28.7,6.3c0,0,5,8.3,2.7,16.8c0,0-8.6-12.5-15.8-13.2C74.2,28.3,55.5,42.3,53,47.2C50.5,52,44.5,69,43.3,83.8
		L42,46L65.8,19z"/>
	<path d="M111.3,24.8c0.8,1.7-1.8,11.7-1.8,11.7c0-6.1-9.3-9.4-9.3-9.4l-1.9-7.3C98.3,19.8,110.5,23.2,111.3,24.8z"/>
	<path d="M147.7,43.1c-13.3-20.4-33.3-16.9-33.3-16.9l-2.1-6.3l19-2.2L147.7,43.1z"/>
</g>
<g style="opacity:0.27;">
	<path d="M158.5,94.1c0,0,0.1-0.7,0.6-1.7c0.3-0.5,0.7-1,1.3-1.4c0.3-0.2,0.7-0.4,1.1-0.6c0.4-0.1,0.9-0.2,1.4-0.1
		c0.2,0,0.5,0.1,0.7,0.2c0.2,0.1,0.4,0.2,0.6,0.3c0.3,0.3,0.7,0.5,0.8,0.9c0.2,0.3,0.4,0.6,0.5,0.9c0.1,0.3,0.2,0.6,0.3,0.8
		c0.1,0.3,0.1,0.5,0.1,0.7c0,0.2,0,0.4,0,0.6c0,0.3,0,0.5,0,0.5s-0.1-0.1-0.4-0.3c-0.1-0.1-0.2-0.2-0.4-0.4
		c-0.1-0.1-0.3-0.3-0.4-0.5c-0.2-0.2-0.3-0.4-0.5-0.6c-0.2-0.2-0.4-0.3-0.6-0.5c-0.2-0.2-0.4-0.3-0.6-0.4c-0.1-0.1-0.2-0.1-0.3-0.1
		c-0.1,0-0.2-0.1-0.3-0.1c-0.2-0.1-0.4,0-0.6,0c-0.2,0.1-0.4,0.1-0.7,0.2c-0.2,0.1-0.5,0.2-0.7,0.3c-0.2,0.1-0.5,0.2-0.7,0.4
		C159.1,93.7,158.5,94.1,158.5,94.1z"/>
</g>
<g style="opacity:0.27;">
	<path d="M44.4,94.2c0,0-0.6-0.4-1.6-0.9c-0.5-0.2-1-0.5-1.5-0.7c-0.3-0.1-0.5-0.2-0.8-0.2c-0.2,0-0.5-0.1-0.7,0
		c-0.2,0-0.4,0.1-0.7,0.1c-0.2,0.1-0.5,0.2-0.7,0.4c-0.2,0.2-0.4,0.3-0.7,0.5c-0.2,0.2-0.4,0.4-0.6,0.6c-0.4,0.3-0.7,0.7-0.9,0.9
		c-0.2,0.2-0.4,0.4-0.4,0.4s0-0.2,0-0.5c0-0.2,0-0.4,0.1-0.6c0-0.2,0.1-0.5,0.2-0.8c0.1-0.3,0.2-0.6,0.4-0.9
		c0.2-0.3,0.4-0.6,0.7-0.9c0.3-0.3,0.6-0.6,1-0.8c0.4-0.2,0.9-0.4,1.4-0.4c0.5-0.1,0.9,0.1,1.4,0.2c0.4,0.2,0.8,0.3,1.1,0.6
		c0.7,0.4,1.1,1,1.4,1.4C44.3,93.4,44.4,94.2,44.4,94.2z"/>
</g>
<g>
	<circle style="fill:#FFFFFF;" cx="125.7" cy="87.4" r="13.4"/>
	<circle style="fill:#2CBF76;" cx="124.8" cy="87.4" r="8.9"/>

		<ellipse transform="matrix(3.071324e-02 -0.9995 0.9995 3.071324e-02 33.5229 209.4552)" style="fill:#3A3A3A;" cx="124.8" cy="87.4" rx="5.1" ry="5.1"/>
	<circle style="opacity:0.53;fill:#FFFFFF;" cx="127.7" cy="83.8" r="1.6"/>
</g>
<g>
	<circle style="fill:#FFFFFF;" cx="88.7" cy="89.8" r="13.4"/>
	<circle style="fill:#2CBF76;" cx="89.4" cy="89.8" r="8.9"/>

		<ellipse transform="matrix(3.071324e-02 -0.9995 0.9995 3.071324e-02 -3.1252 176.4341)" style="fill:#3A3A3A;" cx="89.4" cy="89.8" rx="5.1" ry="5.1"/>
	<circle style="opacity:0.53;fill:#FFFFFF;" cx="92.9" cy="86.2" r="1.6"/>
</g>
<path style="fill:#382A0E;" d="M158.6,85.7c0,0,3.5-46.1-0.2-52.4s-7.1-24.7-52.3-32S56.4,19.7,56.4,19.7S52.4,8,56.4,4.3
	c0,0-6.6,5.3-3.8,15.3c0,0-2.3-3.7-6.4-2.7c0,0,5.2,4.3,4.4,7.3S39,35.3,39.1,55.7s4.2,30.5,4.2,30.5s1.5-30.8,10.5-41.5
	s21.2-20.6,26.8-19.3C88.2,27,95.7,36,97.4,43.1c0,0,7.3-11.2,3.6-19c0,0,8.5,3.6,8.5,12.5c0,0,7.5-4,5.6-12.9
	c0,0,17.6-2.8,26.8,12.9S154.5,45.9,158.6,85.7z"/>
<g style="opacity:0.27;">
	<path d="M111.3,97.8c0,0-0.1,0.5-0.2,1.4c0,0.5-0.1,1-0.1,1.6c0,0.6,0.1,1.3,0.3,1.9c0.1,0.3,0.3,0.5,0.5,0.7
		c0.1,0.1,0.2,0.1,0.4,0.2c0.1,0,0.1,0,0.2,0.1l0.3,0.1c1,0.3,1.9,0.7,2.8,1.4c0.9,0.6,1.7,1.5,2.2,2.8c0.2,0.7,0.2,1.5-0.1,2.2
		c-0.3,0.7-0.8,1.2-1.3,1.5c-0.3,0.2-0.5,0.3-0.8,0.5c-0.3,0.1-0.5,0.2-0.8,0.4c-0.5,0.2-1,0.4-1.6,0.5c-1,0.3-2.1,0.5-3.1,0.6
		c-1,0.1-2,0.1-2.9,0.1c-0.9-0.1-1.8-0.2-2.6-0.5c-0.8-0.2-1.5-0.6-2-1.1c-0.5-0.4-0.9-1-1-1.4c-0.2-0.5-0.2-0.8-0.2-1.1
		c0-0.2,0-0.4,0-0.4s0,0.1,0.1,0.4c0.1,0.2,0.2,0.6,0.4,0.9c0.4,0.8,1.5,1.4,3,1.6c1.5,0.2,3.2,0.1,5.1-0.2c0.9-0.2,1.9-0.4,2.8-0.7
		c0.5-0.2,0.9-0.3,1.3-0.5c0.2-0.1,0.5-0.2,0.6-0.3c0.2-0.1,0.4-0.2,0.5-0.3c0.3-0.2,0.6-0.5,0.7-0.8c0.1-0.3,0.1-0.5,0.1-0.8
		c-0.2-0.7-0.8-1.3-1.4-1.9c-0.6-0.6-1.4-1-2.1-1.3l-0.3-0.1c-0.1-0.1-0.3-0.1-0.4-0.2c-0.3-0.1-0.5-0.3-0.7-0.5
		c-0.4-0.4-0.7-0.9-0.8-1.3c-0.2-0.9-0.1-1.7,0-2.4c0.1-0.7,0.3-1.2,0.5-1.6C111,98.2,111.3,97.8,111.3,97.8z"/>
</g>
<path style="fill:#3A2B1E;" d="M70.5,74.8c0,0,1.4-1.1,3.7-2.5c1.2-0.7,2.5-1.5,4.1-2.2c1.5-0.7,3.2-1.4,5-2
	c0.9-0.3,1.8-0.6,2.7-0.8c0.9-0.3,1.8-0.5,2.7-0.5c1.8-0.1,3.6,0.3,5,0.9c0.7,0.3,1.3,0.7,1.8,1.1c0.5,0.4,0.9,0.8,1.2,1.1
	c0.3,0.3,0.5,0.7,0.6,0.9c0.1,0.2,0.2,0.3,0.2,0.3l-0.3,0.4c0,0-0.1,0-0.4,0c-0.2,0-0.6,0-1,0c-0.4,0-0.9,0-1.4,0
	c-0.5,0-1.1,0.1-1.7,0.1c-1.2,0.1-2.5,0.3-4,0.3c-0.7,0-1.5,0-2.3,0c-0.8,0-1.6,0-2.5,0.1c-1.7,0.2-3.3,0.5-4.9,0.8
	c-1.6,0.3-3.1,0.7-4.3,1.1c-2.5,0.7-4.2,1.3-4.2,1.3L70.5,74.8z"/>
<path style="fill:#3A2B1E;" d="M143.8,76.9c0,0-1.6-0.8-3.9-1.9c-1.2-0.6-2.6-1.2-4.1-1.7c-1.5-0.6-3.1-1.2-4.7-1.6
	c-0.8-0.2-1.6-0.4-2.4-0.5c-0.8-0.1-1.6-0.2-2.3-0.3c-1.4-0.3-2.7-0.7-3.9-1c-0.6-0.1-1.1-0.3-1.6-0.4c-0.5-0.1-0.9-0.2-1.3-0.3
	c-0.4-0.1-0.7-0.1-0.9-0.2c-0.2,0-0.4-0.1-0.4-0.1l-0.2-0.5c0,0,0.1-0.1,0.2-0.3c0.2-0.2,0.4-0.5,0.7-0.7c0.3-0.3,0.8-0.6,1.4-0.9
	c0.6-0.3,1.2-0.6,2-0.8c1.5-0.4,3.3-0.5,5.1-0.1c0.9,0.2,1.8,0.5,2.6,0.9c0.9,0.4,1.7,0.8,2.5,1.2c1.7,0.8,3.2,1.8,4.6,2.7
	c1.4,1,2.6,1.9,3.7,2.8c2.1,1.7,3.3,3.1,3.3,3.1L143.8,76.9z"/>
<path style="opacity:5.000000e-02;fill:#FFFFFF;" d="M153,33.7c0,0-16.3-26.3-41.5-29.3S89.9,7.2,92.9,8.5c0,0-5.9-2.8-13.2-2
	c-7.3,0.8-11.5,4.2-11.5,4.2l-7.5,4.8c0,0,30.8-3.3,37,16.2c0,0,1.5-8.7-2.2-14.8c0,0,13.3,3.5,16.8,12.8c0,0,1.6-12-1.8-15
	C110.5,14.7,129,15.5,153,33.7z"/>
<g style="opacity:0.1;">
	<path d="M92.6,176.8c0,0,0,0.3,0.1,0.7c0.1,0.4,0.2,1,0.3,1.7c0.1,0.3,0.2,0.7,0.3,1c0.2,0.3,0.3,0.7,0.5,1c0.2,0.4,0.4,0.7,0.7,1
		c0.3,0.3,0.5,0.6,0.8,0.9c0.3,0.3,0.6,0.6,1,0.8c0.4,0.2,0.7,0.5,1,0.7c0.4,0.2,0.7,0.4,1.1,0.6c0.4,0.2,0.7,0.3,1,0.5
		c0.6,0.3,1.2,0.5,1.6,0.7c0.4,0.2,0.6,0.3,0.6,0.3s-0.2,0-0.7,0.1c-0.2,0-0.5,0-0.8,0c-0.3,0-0.7,0-1,0c-0.4,0-0.8-0.1-1.2-0.2
		c-0.4-0.1-0.9-0.2-1.3-0.4c-0.5-0.1-0.9-0.4-1.4-0.7c-0.5-0.2-0.9-0.6-1.3-1c-0.4-0.4-0.7-0.8-1-1.2c-0.3-0.5-0.5-0.9-0.7-1.4
		c-0.2-0.5-0.3-1-0.3-1.4c0-0.5-0.1-0.9,0-1.3c0-0.4,0.1-0.7,0.2-1c0.1-0.3,0.2-0.6,0.2-0.8C92.5,177,92.6,176.8,92.6,176.8z"/>
</g>
<path style="fill:none;stroke:#000000;stroke-miterlimit:10;" d="M-365.6,197.8"/>
<path style="fill:none;stroke:#000000;stroke-miterlimit:10;" d="M-365.6,382.3"/>
<path style="fill:none;stroke:#000000;stroke-miterlimit:10;" d="M-365.6,602.7"/>
<path style="fill:none;stroke:#000000;stroke-miterlimit:10;" d="M-365.6-0.2"/>
<path style="fill:#D4145A;" d="M84.7,181.8c0,0,1.6,9.2,12.2,9.9c10.6,0.7,13-2.7,16.8-10.7l12.8,5.3l-5.8,18h-28L77,197.8
	L84.7,181.8z"/>
<path style="fill:#FCF0BE;" d="M201.1,158.3c0,0-6.7-4.9-8.7-13.4c0.3-7.9,3-4.8,4.3-2.7c1.9,4.3,4.8,3.5,4.3-4.6
	c-0.5-9.3,0.4-15.2,2.7-12.7c1.8,2,2,13,2,13s2.3-7.1,1.6-12.1c-0.7-5,4-4.8,4.3-1.4s-0.6,14.2-0.6,14.2s2.4-5.1,3.7-10.7
	c1.3-5.7,5.3-2.7,3.7,1.3c-1.7,4-3.1,12-3.1,12s2.4-3,3.9-5.9c1.5-3.1,4.5-1.3,3,1.4c-1.4,2.5-5.3,9.4-5.3,9.4s-2,9.4-8.2,12.3
	C205,160.1,201.1,158.3,201.1,158.3z"/>
<path style="fill:#FCF0BE;" d="M44.2,319.9c0,0,8.3,0.7,14.4,6.9c3.8,6.9,0,5.7-2.3,4.6c-3.9-2.6-5.9-0.4-1.3,6.2
	c5.3,7.7,7.5,13.2,4.3,12.2c-2.6-0.8-8.5-10-8.5-10s1.7,7.2,4.9,11.2c3.2,3.9-0.9,6.2-3,3.5c-2.1-2.7-6.8-12.4-6.8-12.4
	s0.6,5.6,2.4,11.1c1.8,5.5-3.2,5.1-3.8,0.8s-3.6-11.9-3.6-11.9s-0.5,3.8-0.2,7.1c0.3,3.4-3.2,3.5-3.3,0.4
	c-0.1-2.8-0.4-10.7-0.4-10.7s-3.1-9.1,0.5-14.8C39.9,320.4,44.2,319.9,44.2,319.9z"/>
<g style="opacity:0.23;">
	<path d="M69.9,213.7c0,0,2.3,104.7,5.7,114.4c0,0,14.2,60.7,11.7,172.3l-3-1.3c0,0-0.6-102.5-10.4-149.4
		c-6.1-28.9-7.5-26.5-7.5-26.5S69.4,220.3,69.9,213.7z"/>
	<path d="M69.9,213.7c0,0-17.7,7.1-19.3,107.9l-6.4-1.7C44.2,319.9,46.7,223,69.9,213.7z"/>
	<path d="M104.7,351c0,0,9-1.3,9.7,49.3c0.7,50.7-0.4,100-0.4,100l-3.7-1.3C110.3,499,116.7,357.1,104.7,351z"/>
	<polygon points="114,500.3 114.4,508.9 111.7,508.7 111.6,499.7 	"/>
	<polygon points="96.3,499.7 96.6,510.4 94.2,510.4 94.2,500.3 	"/>
	<path d="M129.3,210.7c0,0,39.1,38.7,67.3-10.2C196.6,200.4,174,255,129.3,210.7z"/>
</g>
<path style="opacity:8.000000e-02;" d="M70.6,185.9c0,0,24.6,42.9,60.4-2.2c0,0-3.8-2.8-7.7-2.8s-9.6-0.7-9.6-0.7V169H84.6v11.3
	C84.6,180.3,73.9,183.4,70.6,185.9z"/>
<g>
	<path style="fill:#382A0E;" d="M40.2,131.7c2.8,0.8,2.5-6,1-8c-1.5-2-1.7-11.8-0.3-13.9c1.3-2.1,1.1-4.1,1.1-4.1s-2.5-1.6,0-3.3
		c2.5-1.7,1-8,1.3-10.4c0.3-2.4,1.2,1,2.5,0.2s2.9,3.3,2.9,3.3l1.2,3.6c0,0,0.3,0.7,0.8,1.5l2.1-3.5c0,0,0.6,3.1,0.7,5.9
		c0.6-0.1,1.4-0.4,2.7-0.4c1.9,0,1.5,2.9,1.5,2.9c-1.2,2.3,4.5,2.7,4.5,1.6c0-1.2,5.8,0,4.8,1c-1,1,4.1,6,5.8,4.8
		c1.7-1.2,3.2-0.5,3.2-0.5s0.9,3.2,2.1,2.8c1.2-0.3,0-2.3,0-2.3c3.2-1.3,6.1,3.2,7.4,3.2c1.3,0,1.4,1.2,1.4,1.2
		c1.4-1.8,4.8-1.2,4.8-1.2c-1.7,3.5,3.2,5.7,3.3,4s1.2-2,1.2-2s3.9,3.3,6.4,1.2c2.5-2.2,8.2-0.7,8.6,0.5c0.4,1.2,7-1,7-2
		s3.5-3.2,5.7-2.2c2.2,1,4.9-3.3,5.2-3.2c0.3,0.2,2.3,0,2.2-2.4c-0.1-2.4,2.6-4.5,2.6-4.5s0,6.1,2.9,4.1c2.9-2,0.6-7,0.6-7
		s3.5,1,5.5,0c2-1,0-5.6,0-5.6s6.3,1.9,4.5-1.3c-0.8-1.3,1.5-4.8,1.5-4.8s0.6,2.5,1.6,2.8c3.4,1.2,6.8-3.7,6.8-3.7
		c-1,3,1.7,5.6,3,6.9c1.3,1.4-2.4,11.9-1.7,13.1c0.7,1.2,1.3,5,0,6.8c-1.3,1.8,0.4,8.8,1.7,9.8s-1.9,3-4.3,3c-2.4,0,0,10.5,0,12.2
		s-1.3,0.5-3.7,2.5s-0.2,6.8-0.2,8.8s-4.4-2.2-5.9-1c-1.5,1.2,1.3,6.2,1.3,6.2c0,1.8-4.4,3.5-6.3,1.8s-5.5,9-5.9,13.5
		c-0.4,4.5-7.9-2.8-8.3-4.5s-6.3,3-7.2,6.5c-0.9,3.5-6.1,1.8-6.1,1.8c0.4-3.2-5.9-3.2-7.4,0.8c-1.5,4-5.7,7.5-5.8,3.7
		c-0.1-3.8-5.3-0.9-5.3-0.9c-3.1,3.5-10.3-3.8-9.5-5.5c0.3-0.7-1.8-1.8-4.5-2.6c-0.3,2.1-0.3,4.7,0.9,6.3c0,0-5.6-2.5-7.5-7.1
		c-1.1,0.2-0.9,0.7-0.9,1.6c-0.2,3.1-4,1.4-5.7,0.5c-0.5-0.3-0.8-0.8-0.8-1.4c0-0.3,0-0.7-0.1-1c-0.6,0.5-1.7,0.5-2.8,0.4
		c-1.3-0.2-1.7-1.8-0.8-2.6c0,0,0,0,0.1-0.1c0.8-0.7,0.6-2-0.4-2.4c-1.6-0.8-3.3-1.1-4.1-1.1c-1.7,0-3-2-2.1-5s-4.6-10.8-6-10.8
		c-1.5,0-4.7-5.5-3.3-7.3c1.3-1.8-2.9-5.3-5.4-5.3C39.6,137.7,40.2,131.7,40.2,131.7z"/>
	<path style="opacity:0.2;" d="M41.2,130.7c2.7,0.8,2.4-6,1-8c-1.4-2-1.7-11.8-0.4-13.9c1.3-2.1,1.1-4.1,1.1-4.1s-2.4-1.6,0-3.3
		s1-8,1.3-10.4c0.3-2.4,1.2,1,2.4,0.2s2.9,3.3,2.9,3.3l1.2,3.6c0,0,0.3,0.7,0.8,1.5l2-3.5c0,0,0.6,3.1,0.7,5.9
		c0.6-0.1,1.4-0.4,2.7-0.4c1.9,0,1.4,2.9,1.4,2.9c-1.2,2.3,4.5,2.7,4.5,1.6c0-1.2,5.8,0,4.8,1c-1,1,4,6,5.8,4.8
		c1.7-1.2,3.2-0.5,3.2-0.5s0.9,3.2,2,2.8c1.2-0.3,0-2.3,0-2.3c3.2-1.3,6.1,3.2,7.3,3.2c1.2,0,1.4,1.2,1.4,1.2
		c1.3-1.8,4.7-1.2,4.7-1.2c-1.7,3.5,3.2,5.7,3.3,4c0.1-1.7,1.2-2,1.2-2s3.9,3.3,6.3,1.2c2.4-2.2,8.1-0.7,8.5,0.5s6.9-1,6.9-2
		s3.5-3.2,5.6-2.2c2.2,1,4.9-3.3,5.2-3.2c0.3,0.2,2.3,0,2.1-2.4c-0.1-2.4,2.6-4.5,2.6-4.5s0,6.1,2.9,4.1c2.9-2,0.6-7,0.6-7
		s3.5,1,5.5,0c2-1,0-5.6,0-5.6s6.3,1.9,4.5-1.3c-0.8-1.3,1.5-4.8,1.5-4.8s0.6,2.5,1.5,2.8c3.4,1.2,6.7-3.7,6.7-3.7
		c-1,3,1.7,5.6,3,6.9c1.3,1.4-2.3,11.9-1.6,13.1c0.7,1.2,1.2,5,0,6.8c-1.2,1.8,0.4,8.8,1.6,9.8s-1.9,3-4.3,3s0,10.5,0,12.2
		s-1.3,0.5-3.7,2.5s-0.2,6.8-0.2,8.8s-4.3-2.2-5.8-1s1.3,6.2,1.3,6.2c0,1.8-4.3,3.5-6.3,1.8c-1.9-1.8-5.4,9-5.8,13.5
		c-0.4,4.5-7.8-2.8-8.2-4.5s-6.3,3-7.1,6.5s-6.1,1.8-6.1,1.8c0.4-3.2-5.8-3.2-7.3,0.8s-5.6,7.5-5.8,3.7c-0.1-3.8-5.3-0.9-5.3-0.9
		c-3,3.5-10.2-3.8-9.4-5.5c0.3-0.7-1.8-1.8-4.4-2.6c-0.3,2.1-0.3,4.7,0.9,6.3c0,0-5.5-2.5-7.4-7.1c-1.1,0.2-0.9,0.7-0.9,1.6
		c-0.2,3.1-3.9,1.4-5.6,0.5c-0.5-0.3-0.8-0.8-0.8-1.4c0-0.3,0-0.7-0.1-1c-0.6,0.5-1.7,0.5-2.7,0.4c-1.3-0.2-1.7-1.8-0.8-2.6
		c0,0,0,0,0.1-0.1c0.8-0.7,0.6-2-0.4-2.4c-1.6-0.8-3.3-1.1-4-1.1c-1.7,0-2.9-2-2.1-5c0.9-3-4.5-10.8-5.9-10.8
		c-1.4,0-4.6-5.5-3.3-7.3c1.3-1.8-2.9-5.3-5.3-5.3C40.6,136.7,41.2,130.7,41.2,130.7z"/>
	<path style="fill:#FCF0BE;" d="M125.2,128.7c0,0-4.8,0.2-6.5-2.3c0,0-2.8-1.5-4.8,0s-3.5,0.2-4.5-0.7s-7-1.2-8.5,1.5
		s-3.8-2.1-3.8-2.1h-4.2l-3.5,1.8l-4.1,3.3c0,0-1.4,5.8,2.5,5.2c3.9-0.5,1.6,5.2,1.6,5.2l1.6,5.2c0,0,3.8,0.8,3.8-2.8
		c0,0,2.6-3,3.8-1.2s1.2-2,4-2s5.8,0.5,5.8,2s1.5,2.2,2.5,1.8s2,1.9,0.5,2.3c-1.5,0.4,4.3-1.1,4.9-3.1c0.6-2,6.4-2.5,5.6-5.2
		s2-4.2,3.2-3.2S129.4,129.3,125.2,128.7z"/>
	<g style="opacity:0.27;">
		<path d="M119,131.3c0,0-0.3,0.3-0.9,0.8c-0.6,0.5-1.5,1.2-2.8,1.8c-0.6,0.3-1.3,0.7-2,1c-0.7,0.3-1.5,0.6-2.3,0.8
			c-0.4,0.1-0.8,0.2-1.3,0.3c-0.4,0.1-0.9,0.2-1.3,0.3c-0.9,0.1-1.8,0.2-2.8,0.2c-0.9,0-1.9,0-2.8-0.2c-0.5-0.1-0.9-0.1-1.4-0.2
			c-0.4-0.1-0.9-0.2-1.3-0.4c-0.4-0.1-0.8-0.2-1.2-0.4c-0.4-0.2-0.8-0.4-1.1-0.5c-0.4-0.2-0.7-0.4-1-0.5c-0.3-0.2-0.6-0.4-0.9-0.6
			c-0.6-0.4-1.1-0.8-1.5-1.1c-0.4-0.4-0.7-0.8-1-1.1c-0.5-0.6-0.8-1-0.8-1s0.4,0.2,1.2,0.5c0.4,0.2,0.8,0.3,1.3,0.6
			c0.5,0.2,1.1,0.4,1.7,0.6c0.6,0.2,1.3,0.4,2,0.6c0.3,0.1,0.7,0.2,1.1,0.3c0.4,0,0.7,0.1,1.1,0.2c0.4,0,0.8,0.1,1.2,0.2
			c0.4,0,0.8,0,1.2,0.1c0.8,0.1,1.6,0,2.4,0.1c0.8,0,1.7-0.1,2.5-0.1c0.8-0.1,1.6-0.2,2.4-0.3c0.8-0.1,1.5-0.2,2.3-0.4
			c0.7-0.1,1.4-0.3,2-0.4c1.3-0.3,2.3-0.5,3.1-0.7C118.6,131.4,119,131.3,119,131.3z"/>
	</g>
</g>
<path style="fill:#FCF0BE;" d="M123.7,208"/>
<path style="opacity:9.000000e-02;fill:#FFFFFF;" d="M82.7,290.7c0,0,29.6-30.3,46.5,0c0,0-3.9-57-6.9-82.7c0,0-2.3,59.6-5.5,62
	C116.9,270,91.3,263,82.7,290.7z"/>
</svg>
