<svg version="1.1" id="Layer_1" xmlns="http://www.w3.org/2000/svg" xmlns:xlink="http://www.w3.org/1999/xlink" x="0px" y="0px"
	 viewBox="0 0 136.7 210" style="enable-background:new 0 0 136.7 210;" xml:space="preserve">
<path style="fill:#FCF0BE;" d="M72.9,195.5H61.7c-8,0-14.5-6.5-14.5-14.5v-11.3c0-8,6.5-14.5,14.5-14.5h11.3c8,0,14.5,6.5,14.5,14.5
	v11.3C87.5,189,81,195.5,72.9,195.5z"/>
<path style="fill:#721003;" d="M47.1,180.9l19.3,14.5L87.3,183l0.9-9.6l20.3,5.7c8.9,2.5,15.7,15.5,7.6,20.2l-12.3,7.3
	c-3.1,1.7-9.7,0.3-13.2,0.4l-49.9,2.6c-4.1,0.2-8.1-0.8-11.7-2.8l-8.3-4.9c-7.5-4.4-6.8-15.4,1.2-18.8l25-10.5V180.9z"/>
<path style="fill:#FCF0BE;" d="M127.8,85.7c-0.9,0-1.8,0.2-2.6,0.5l0.2-15.8c0-36.5-25.8-66-57.7-66h0c-31.8,0-57.7,29.5-57.7,66
	L9.9,85.7c-0.3,0-0.7-0.1-1-0.1C4,85.7,0,90.2,0,95.8c0,5.6,4,10.2,8.9,10.2c0.5,0,0.9-0.1,1.3-0.1c3,33.2,27.5,59.1,57.3,59.1h0
	c29.9,0,54.6-26.1,57.4-59.6c0.9,0.4,1.9,0.6,2.9,0.6c4.9,0,8.9-4.6,8.9-10.2C136.7,90.2,132.7,85.7,127.8,85.7z"/>
<path style="opacity:0.2;" d="M127.3,131.7c-2.7,0.8-2.4-6-1-8c1.4-2,1.7-11.8,0.4-13.9c-1.3-2.1-1.1-4.1-1.1-4.1s2.4-1.6,0-3.3
	s-1-8-1.3-10.4c-0.3-2.4-1.2,1-2.4,0.2c-1.3-0.8-2.9,3.3-2.9,3.3l-1.2,3.6c0,0-0.3,0.7-0.8,1.5l-2-3.5c0,0-0.6,3.1-0.7,5.9
	c-0.6-0.1-1.4-0.4-2.7-0.4c-1.9,0-1.4,2.9-1.4,2.9c1.2,2.3-4.5,2.7-4.5,1.6c0-1.2-5.8,0-4.8,1c1,1-4,6-5.8,4.8
	c-1.7-1.2-3.2-0.5-3.2-0.5s-0.9,3.2-2,2.8c-1.2-0.3,0-2.3,0-2.3c-3.2-1.3-6.1,3.2-7.3,3.2c-1.2,0-1.4,1.2-1.4,1.2
	c-1.3-1.8-4.7-1.2-4.7-1.2c1.7,3.5-3.2,5.7-3.3,4c-0.1-1.7-1.2-2-1.2-2s-3.9,3.3-6.3,1.2c-2.4-2.2-8.1-0.7-8.5,0.5s-6.9-1-6.9-2
	s-3.5-3.2-5.6-2.2c-2.2,1-4.9-3.3-5.2-3.2c-0.3,0.2-2.3,0-2.1-2.4s-2.6-4.5-2.6-4.5s0,6.1-2.9,4.1c-2.9-2-0.6-7-0.6-7s-3.5,1-5.5,0
	c-2-1,0-5.6,0-5.6s-6.3,1.9-4.5-1.3c0.8-1.3-1.5-4.8-1.5-4.8s-0.6,2.5-1.5,2.8c-3.4,1.2-6.7-3.7-6.7-3.7c1,3-1.7,5.6-3,6.9
	c-1.3,1.4,2.3,11.9,1.6,13.1c-0.7,1.2-1.2,5,0,6.8c1.2,1.8-0.4,8.8-1.6,9.8s1.9,3,4.3,3s0,10.5,0,12.2s1.3,0.5,3.7,2.5
	s0.2,6.8,0.2,8.8s4.3-2.2,5.8-1s-1.3,6.2-1.3,6.2c0,1.8,4.3,3.5,6.3,1.8s5.4,9,5.8,13.5s7.8-2.8,8.2-4.5c0.4-1.8,6.3,3,7.1,6.5
	c0.9,3.5,6.1,1.8,6.1,1.8c-0.4-3.2,5.8-3.2,7.3,0.8s5.6,7.5,5.8,3.7c0.1-3.8,5.3-0.9,5.3-0.9c3,3.5,10.2-3.8,9.4-5.5
	c-0.3-0.7,1.8-1.8,4.4-2.6c0.3,2.1,1.5,6.2,0.3,7.9c0,0,4.3-4.1,6.2-8.6c1.1,0.2,0.9,0.7,0.9,1.6c0.2,3.1,3.9,1.4,5.6,0.5
	c0.5-0.3,0.8-0.8,0.8-1.4c0-0.3,0-0.7,0.1-1c0.6,0.5,1.7,0.5,2.7,0.4c1.3-0.2,1.7-1.8,0.8-2.6c0,0,0,0-0.1-0.1
	c-0.8-0.7-0.6-2,0.4-2.4c1.6-0.8,3.3-1.1,4-1.1c1.7,0,2.9-2,2.1-5s4.5-10.8,5.9-10.8c1.4,0,4.6-5.5,3.3-7.3
	c-1.3-1.8,2.9-5.3,5.3-5.3C127.9,137.7,127.3,131.7,127.3,131.7z"/>
<g style="opacity:0.25;">
	<path d="M102.7,19l-28.7,6.3c0,0-5,8.3-2.7,16.8c0,0,8.6-12.5,15.8-13.2c7.2-0.7,25.9,13.3,28.4,18.2c2.5,4.8,8.5,21.9,9.7,36.7
		l1.3-37.9L102.7,19z"/>
	<path d="M57.2,24.8C56.4,26.5,59,36.5,59,36.5c0-6.1,9.3-9.4,9.3-9.4l1.9-7.3C70.2,19.8,58.1,23.2,57.2,24.8z"/>
	<path d="M20.9,43.1c13.3-20.4,33.3-16.9,33.3-16.9l2.1-6.3l-19-2.2L20.9,43.1z"/>
</g>
<g style="opacity:0.27;">
	<path d="M10.1,94.1c0,0-0.6-0.4-1.5-0.9C8.4,93.1,8.2,93,8,92.8c-0.2-0.1-0.5-0.2-0.7-0.3c-0.2-0.1-0.5-0.1-0.7-0.2
		c-0.2,0-0.4-0.1-0.6,0c-0.1,0-0.2,0-0.3,0.1c-0.1,0-0.2,0-0.3,0.1c-0.2,0.2-0.4,0.2-0.6,0.4c-0.2,0.2-0.4,0.3-0.6,0.5
		c-0.2,0.2-0.3,0.4-0.5,0.6c-0.2,0.2-0.3,0.4-0.4,0.5c-0.1,0.2-0.3,0.3-0.4,0.4c-0.2,0.2-0.4,0.3-0.4,0.3s0-0.2,0-0.5
		c0-0.2,0-0.3,0-0.6c0-0.2,0-0.5,0.1-0.7c0.1-0.3,0.2-0.5,0.3-0.8c0.1-0.3,0.3-0.6,0.5-0.9c0.2-0.3,0.5-0.6,0.8-0.9
		c0.2-0.1,0.4-0.2,0.6-0.3c0.2-0.1,0.4-0.2,0.7-0.2c0.5-0.1,0.9,0,1.4,0.1c0.4,0.2,0.8,0.3,1.1,0.6c0.6,0.4,1,1,1.3,1.4
		C10,93.3,10.1,94.1,10.1,94.1z"/>
</g>
<g style="opacity:0.27;">
	<path d="M124.2,94.2c0,0,0.1-0.8,0.8-1.7c0.3-0.5,0.8-1,1.4-1.4c0.3-0.2,0.7-0.4,1.1-0.6c0.4-0.1,0.9-0.2,1.4-0.2
		c0.5,0,0.9,0.2,1.4,0.4c0.4,0.2,0.8,0.5,1,0.8c0.2,0.3,0.5,0.6,0.7,0.9c0.1,0.3,0.3,0.6,0.4,0.9c0.1,0.3,0.2,0.5,0.2,0.8
		c0,0.2,0.1,0.4,0.1,0.6c0,0.3,0,0.5,0,0.5s-0.2-0.1-0.4-0.4c-0.2-0.2-0.5-0.6-0.9-0.9c-0.2-0.2-0.4-0.4-0.6-0.6
		c-0.2-0.2-0.4-0.3-0.7-0.5c-0.2-0.2-0.5-0.2-0.7-0.4c-0.2,0-0.4-0.2-0.7-0.1c-0.2-0.1-0.5,0-0.7,0c-0.3,0.1-0.5,0.1-0.8,0.2
		c-0.5,0.2-1,0.5-1.5,0.7C124.8,93.8,124.2,94.2,124.2,94.2z"/>
</g>
<g>
	<circle style="fill:#FFFFFF;" cx="42.8" cy="87.4" r="13.4"/>
	<circle style="fill:#2CBF76;" cx="43.8" cy="87.4" r="8.9"/>

		<ellipse transform="matrix(0.9995 -3.071324e-02 3.071324e-02 0.9995 -2.665 1.3863)" style="fill:#3A3A3A;" cx="43.8" cy="87.4" rx="5.1" ry="5.1"/>
	<circle style="opacity:0.53;fill:#FFFFFF;" cx="40.9" cy="83.8" r="1.6"/>
</g>
<g>
	<circle style="fill:#FFFFFF;" cx="79.8" cy="89.8" r="13.4"/>
	<circle style="fill:#2CBF76;" cx="79.1" cy="89.8" r="8.9"/>

		<ellipse transform="matrix(0.9995 -3.071324e-02 3.071324e-02 0.9995 -2.7216 2.4731)" style="fill:#3A3A3A;" cx="79.1" cy="89.8" rx="5.1" ry="5.1"/>
	<circle style="opacity:0.53;fill:#FFFFFF;" cx="75.7" cy="86.2" r="1.6"/>
</g>
<path style="fill:#382A0E;" d="M9.9,85.7c0,0-3.5-46.1,0.2-52.4s7.1-24.7,52.3-32s49.8,18.3,49.8,18.3s4.1-11.7,0-15.3
	c0,0,6.6,5.3,3.8,15.3c0,0,2.3-3.7,6.4-2.7c0,0-5.2,4.3-4.4,7.3c0.9,3,11.7,11,11.5,31.3c-0.2,20.3-4.2,30.5-4.2,30.5
	s-1.5-30.8-10.5-41.5S93.5,24.1,87.9,25.3C80.3,27,72.8,36,71.2,43.1c0,0-7.3-11.2-3.6-19c0,0-8.5,3.6-8.5,12.5c0,0-7.5-4-5.6-12.9
	c0,0-17.6-2.8-26.8,12.9S14.1,45.9,9.9,85.7z"/>
<path style="fill:#382A0E;" d="M128.3,131.7c-2.8,0.8-2.5-6-1-8c1.5-2,1.7-11.8,0.3-13.9c-1.3-2.1-1.1-4.1-1.1-4.1s2.5-1.6,0-3.3
	s-1-8-1.3-10.4c-0.3-2.4-1.2,1-2.5,0.2s-2.9,3.3-2.9,3.3l-1.2,3.6c0,0-0.3,0.7-0.8,1.5l-2.1-3.5c0,0-0.6,3.1-0.7,5.9
	c-0.6-0.1-1.4-0.4-2.7-0.4c-1.9,0-1.5,2.9-1.5,2.9c1.2,2.3-4.5,2.7-4.5,1.6c0-1.2-5.8,0-4.8,1c1,1-4.1,6-5.8,4.8
	c-1.7-1.2-3.2-0.5-3.2-0.5s-0.9,3.2-2.1,2.8c-1.2-0.3,0-2.3,0-2.3c-3.2-1.3-6.1,3.2-7.4,3.2c-1.3,0-1.4,1.2-1.4,1.2
	c-1.4-1.8-4.8-1.2-4.8-1.2c1.7,3.5-3.2,5.7-3.3,4c-0.1-1.7-1.2-2-1.2-2s-3.9,3.3-6.4,1.2c-2.5-2.2-8.2-0.7-8.6,0.5c-0.4,1.2-7-1-7-2
	s-3.5-3.2-5.7-2.2c-2.2,1-4.9-3.3-5.2-3.2c-0.3,0.2-2.3,0-2.2-2.4c0.1-2.4-2.6-4.5-2.6-4.5s0,6.1-2.9,4.1c-2.9-2-0.6-7-0.6-7
	s-3.5,1-5.5,0c-2-1,0-5.6,0-5.6s-6.3,1.9-4.5-1.3c0.8-1.3-1.5-4.8-1.5-4.8s-0.6,2.5-1.6,2.8c-3.4,1.2-6.8-3.7-6.8-3.7
	c1,3-1.7,5.6-3,6.9c-1.3,1.4,2.4,11.9,1.7,13.1c-0.7,1.2-1.3,5,0,6.8c1.3,1.8-0.4,8.8-1.7,9.8s1.9,3,4.3,3s0,10.5,0,12.2
	s1.3,0.5,3.7,2.5s0.2,6.8,0.2,8.8s4.4-2.2,5.9-1c1.5,1.2-1.3,6.2-1.3,6.2c0,1.8,4.4,3.5,6.3,1.8s5.5,9,5.9,13.5
	c0.4,4.5,7.9-2.8,8.3-4.5c0.4-1.8,6.3,3,7.2,6.5s6.1,1.8,6.1,1.8c-0.4-3.2,5.9-3.2,7.4,0.8c1.5,4,5.7,7.5,5.8,3.7
	c0.1-3.8,5.3-0.9,5.3-0.9c3.1,3.5,10.3-3.8,9.5-5.5c-0.3-0.7,1.8-1.8,4.5-2.6c0.3,2.1,1.6,4,0.4,5.6c0,0,4.3-1.8,6.2-6.4
	c1.1,0.2,0.9,0.7,0.9,1.6c0.2,3.1,4,1.4,5.7,0.5c0.5-0.3,0.8-0.8,0.8-1.4c0-0.3,0-0.7,0.1-1c0.6,0.5,1.7,0.5,2.8,0.4
	c1.3-0.2,1.7-1.8,0.8-2.6c0,0,0,0-0.1-0.1c-0.8-0.7-0.6-2,0.4-2.4c1.6-0.8,3.3-1.1,4.1-1.1c1.7,0,3-2,2.1-5c-0.9-3,4.6-10.8,6-10.8
	c1.5,0,4.7-5.5,3.3-7.3c-1.3-1.8,2.9-5.3,5.4-5.3C128.9,137.7,128.3,131.7,128.3,131.7z"/>
<path style="fill:#FCF0BE;" d="M44.4,126.7c0,0,4.8,0.2,6.5-2.2c0,0,2.8-1.5,4.8,0s3.5,0.2,4.5-0.7s7-1.2,8.5,1.5
	c1.5,2.7,3.8-2.1,3.8-2.1h4.2l3.5,1.8l4.1,3.3c0,0,1.4,5.8-2.5,5.2c-3.9-0.5-1.6,5.2-1.6,5.2l-1.6,5.2c0,0-3.8,0.8-3.8-2.8
	c0,0-2.6-3-3.8-1.2s-1.2-2-4-2s-5.8,0.5-5.8,2s-1.5,2.2-2.5,1.8s-2,1.9-0.5,2.3c1.5,0.4-4.3-1.1-4.9-3.1c-0.6-2-6.4-2.5-5.6-5.2
	s-2-4.2-3.2-3.2S40.2,127.3,44.4,126.7z"/>
<g style="opacity:0.27;">
	<path d="M50.5,129.3c0,0,0.4,0.1,1.2,0.3c0.8,0.2,1.8,0.4,3.1,0.7c0.6,0.1,1.3,0.3,2,0.4c0.7,0.2,1.5,0.3,2.3,0.4
		c0.8,0.2,1.6,0.2,2.4,0.3c0.8,0,1.6,0.1,2.5,0.1c0.8,0,1.7,0,2.4-0.1c0.4,0,0.8-0.1,1.2-0.1c0.4,0,0.8-0.1,1.2-0.2
		c0.4-0.1,0.8-0.1,1.1-0.2c0.4-0.1,0.7-0.2,1.1-0.3c0.7-0.2,1.4-0.3,2-0.6c0.6-0.2,1.2-0.4,1.7-0.6c0.5-0.2,0.9-0.4,1.3-0.6
		c0.7-0.3,1.2-0.5,1.2-0.5s-0.3,0.4-0.8,1c-0.3,0.3-0.6,0.7-1,1.1c-0.4,0.4-0.9,0.7-1.5,1.1c-0.3,0.2-0.6,0.4-0.9,0.6
		c-0.3,0.2-0.7,0.3-1,0.5c-0.4,0.2-0.7,0.3-1.1,0.5c-0.4,0.1-0.8,0.3-1.2,0.4c-0.4,0.1-0.9,0.3-1.3,0.4c-0.4,0.1-0.9,0.1-1.4,0.2
		c-0.9,0.2-1.9,0.1-2.8,0.2c-0.9,0-1.9-0.1-2.8-0.2c-0.4-0.1-0.9-0.2-1.3-0.3c-0.4-0.1-0.9-0.2-1.3-0.3c-0.8-0.2-1.6-0.5-2.3-0.8
		c-0.7-0.3-1.4-0.7-2-1c-1.2-0.7-2.1-1.3-2.8-1.8C50.8,129.6,50.5,129.3,50.5,129.3z"/>
</g>
<g style="opacity:0.27;">
	<path d="M57.3,97.8c0,0,0.3,0.4,0.6,1.3c0.2,0.4,0.4,1,0.5,1.6c0.1,0.7,0.2,1.4,0,2.4c-0.1,0.5-0.4,1-0.8,1.3
		c-0.2,0.2-0.5,0.4-0.7,0.5c-0.1,0.1-0.3,0.1-0.4,0.2l-0.3,0.1c-0.7,0.3-1.5,0.7-2.1,1.3c-0.6,0.6-1.3,1.2-1.4,1.9
		c-0.1,0.3,0,0.6,0.1,0.8c0.1,0.3,0.4,0.5,0.7,0.8c0.2,0.1,0.3,0.2,0.5,0.3c0.2,0.1,0.5,0.2,0.6,0.3c0.4,0.2,0.9,0.4,1.3,0.5
		c0.9,0.3,1.9,0.5,2.8,0.7c1.8,0.4,3.6,0.4,5.1,0.2c1.5-0.2,2.6-0.9,3-1.6c0.2-0.4,0.3-0.7,0.4-0.9c0-0.2,0.1-0.4,0.1-0.4
		s0,0.1,0,0.4c0,0.2,0,0.6-0.2,1.1c-0.2,0.5-0.5,1-1,1.4c-0.5,0.4-1.2,0.8-2,1.1c-0.8,0.2-1.7,0.4-2.6,0.5c-0.9,0.1-1.9,0-2.9-0.1
		c-1-0.1-2.1-0.3-3.1-0.6c-0.5-0.1-1-0.3-1.6-0.5c-0.3-0.1-0.5-0.2-0.8-0.4c-0.3-0.1-0.5-0.3-0.8-0.5c-0.5-0.4-1-0.9-1.3-1.5
		c-0.3-0.7-0.3-1.5-0.1-2.2c0.4-1.3,1.3-2.2,2.2-2.8c0.9-0.6,1.8-1.1,2.8-1.4l0.3-0.1c0.1,0,0.2,0,0.2-0.1c0.1,0,0.3-0.1,0.4-0.2
		c0.2-0.2,0.4-0.4,0.5-0.7c0.3-0.6,0.3-1.3,0.3-1.9c0-0.6,0-1.2-0.1-1.6C57.4,98.3,57.3,97.8,57.3,97.8z"/>
</g>
<path style="fill:#3A2B1E;" d="M97.8,75.3c0,0-1.7-0.6-4.2-1.3c-1.3-0.4-2.7-0.7-4.3-1.1c-1.6-0.3-3.3-0.7-4.9-0.8
	C83.6,72,82.7,72,81.9,72c-0.8,0-1.6,0.1-2.3,0c-1.5-0.1-2.8-0.2-4-0.3c-0.6,0-1.1-0.1-1.7-0.1c-0.5,0-1,0-1.4,0c-0.4,0-0.7,0-1,0
	c-0.2,0-0.4,0-0.4,0L71,71.1c0,0,0.1-0.1,0.2-0.3c0.1-0.2,0.3-0.5,0.6-0.9c0.3-0.3,0.7-0.7,1.2-1.1c0.5-0.4,1.1-0.7,1.8-1.1
	c1.4-0.6,3.2-1,5-0.9c0.9,0,1.8,0.3,2.7,0.5c0.9,0.3,1.8,0.6,2.7,0.8c1.8,0.6,3.5,1.2,5,2c1.5,0.7,2.9,1.5,4.1,2.2
	c2.3,1.4,3.7,2.5,3.7,2.5L97.8,75.3z"/>
<path style="fill:#3A2B1E;" d="M24.5,76.5c0,0,1.2-1.3,3.3-3.1c1-0.9,2.3-1.9,3.7-2.8c1.4-1,3-1.9,4.6-2.7c0.8-0.4,1.7-0.8,2.5-1.2
	c0.9-0.4,1.7-0.8,2.6-0.9c1.8-0.4,3.6-0.3,5.1,0.1c0.7,0.2,1.4,0.4,2,0.8c0.6,0.3,1,0.6,1.4,0.9c0.3,0.3,0.6,0.6,0.7,0.7
	c0.2,0.2,0.2,0.3,0.2,0.3L50.4,69c0,0-0.1,0-0.4,0.1c-0.2,0.1-0.5,0.1-0.9,0.2c-0.4,0.1-0.8,0.1-1.3,0.3c-0.5,0.1-1,0.2-1.6,0.4
	c-1.2,0.3-2.4,0.7-3.9,1c-0.7,0.1-1.5,0.2-2.3,0.3c-0.8,0.1-1.6,0.3-2.4,0.5c-1.6,0.5-3.2,1.1-4.7,1.6c-1.5,0.6-2.9,1.2-4.1,1.7
	c-2.4,1.1-3.9,1.9-3.9,1.9L24.5,76.5z"/>
<path style="opacity:5.000000e-02;fill:#FFFFFF;" d="M15.6,33.7c0,0,16.3-26.3,41.5-29.3s21.6,2.8,18.6,4.2c0,0,5.9-2.8,13.2-2
	s11.5,4.2,11.5,4.2l7.5,4.8c0,0-30.8-3.3-37,16.2c0,0-1.5-8.7,2.2-14.8c0,0-13.3,3.5-16.8,12.8c0,0-1.6-12,1.8-15
	C58.1,14.7,39.6,15.5,15.6,33.7z"/>
<g style="opacity:0.1;">
	<path d="M58.2,176c0,0,0,0.3,0.1,0.7c0.1,0.4,0.2,1,0.3,1.7c0.1,0.3,0.2,0.7,0.3,1c0.2,0.3,0.3,0.7,0.5,1c0.2,0.4,0.4,0.7,0.7,1
		c0.3,0.3,0.5,0.6,0.8,0.9c0.3,0.3,0.6,0.6,1,0.8c0.4,0.2,0.7,0.5,1,0.7c0.4,0.2,0.7,0.4,1.1,0.6c0.4,0.2,0.7,0.3,1,0.5
		c0.6,0.3,1.2,0.5,1.6,0.7c0.4,0.2,0.6,0.3,0.6,0.3s-0.2,0-0.7,0.1c-0.2,0-0.5,0-0.8,0c-0.3,0-0.7,0-1,0c-0.4,0-0.8-0.1-1.2-0.2
		c-0.4-0.1-0.9-0.2-1.3-0.4c-0.5-0.1-0.9-0.4-1.4-0.7c-0.5-0.2-0.9-0.6-1.3-1c-0.4-0.4-0.7-0.8-1-1.2c-0.3-0.5-0.5-0.9-0.7-1.4
		c-0.2-0.5-0.3-1-0.3-1.4c0-0.5-0.1-0.9,0-1.3c0-0.4,0.1-0.7,0.2-1c0.1-0.3,0.2-0.6,0.2-0.8C58.1,176.2,58.2,176,58.2,176z"/>
</g>
</svg>
